<svg xmlns="http://www.w3.org/2000/svg" xmlns:xlink="http://www.w3.org/1999/xlink" xmlns:svgjs="http://svgjs.com/svgjs" width="288" height="288" version="1.1" style=""><rect id="backgroundrect" width="100%" height="100%" x="0" y="0" fill="none" stroke="none"/><defs id="SvgjsDefs1013"/><g class="currentLayer" style=""><title>Layer 1</title><rect fill="#e98ae9" stroke="#000000" stroke-dashoffset="" fill-rule="nonzero" opacity="0" id="svg_5" x="62" y="71" width="84" height="39" style="color: rgb(65, 90, 119);"/><rect fill="#dadada" stroke="#dadada" stroke-dashoffset="" fill-rule="nonzero" opacity="0" id="svg_7" x="33" y="51" width="103" height="7" style="color: rgb(65, 90, 119);"/><rect fill="#dadada" stroke="#dadada" stroke-dashoffset="" fill-rule="nonzero" opacity="0" id="svg_9" x="35" y="49" width="80" height="10" style="color: rgb(65, 90, 119);"/><rect fill="#dadada" stroke="#dadada" stroke-dashoffset="" fill-rule="nonzero" opacity="0" id="svg_11" x="81" y="120" width="1" height="0" style="color: rgb(65, 90, 119);"/><rect fill="#dadada" stroke="#dadada" stroke-dashoffset="" fill-rule="nonzero" opacity="0" id="svg_13" x="94" y="132" width="5" height="2" style="color: rgb(65, 90, 119);"/><rect fill="#dadada" stroke="#dadada" stroke-dashoffset="" fill-rule="nonzero" id="svg_15" x="35" y="51" width="76" height="0" style="color: rgb(65, 90, 119);"/><rect fill="#dadada" stroke="#dadada" stroke-dashoffset="" fill-rule="nonzero" id="svg_17" x="112" y="51" width="1" height="1" style="color: rgb(65, 90, 119);"/><rect fill="#ffffff" stroke-dashoffset="" fill-rule="nonzero" id="svg_3" x="0.8554539965520025" y="49" width="286.7590380049337" height="175.4245994256231" style="color: rgb(65, 90, 119);" class="selected" rx="23" ry="23" fill-opacity="1"/><g id="SvgjsG1014" class="" transform="matrix(0.9621034595633089,0,0,0.9621034595633089,-1.4885105819341842,3.0474610087303304) "><svg xmlns="http://www.w3.org/2000/svg" width="288" height="288" fill="none" viewBox="0 0 22 15" id="svg_1" x="0" y="-2.186969757080078"><path fill="#415a77" d="M12.1666 11.0001H5.83329C5.70068 11.0001 5.57351 11.0528 5.47974 11.1465C5.38597 11.2403 5.33329 11.3675 5.33329 11.5001V11.8334C5.33329 11.966 5.38597 12.0932 5.47974 12.187C5.57351 12.2807 5.70068 12.3334 5.83329 12.3334H12.1666C12.2992 12.3334 12.4264 12.2807 12.5201 12.187C12.6139 12.0932 12.6666 11.966 12.6666 11.8334V11.5001C12.6666 11.3675 12.6139 11.2403 12.5201 11.1465C12.4264 11.0528 12.2992 11.0001 12.1666 11.0001ZM12.1666 7.00011H5.83329C5.70068 7.00011 5.57351 7.05279 5.47974 7.14656C5.38597 7.24032 5.33329 7.3675 5.33329 7.50011V7.83344C5.33329 7.96605 5.38597 8.09322 5.47974 8.18699C5.57351 8.28076 5.70068 8.33344 5.83329 8.33344H12.1666C12.2992 8.33344 12.4264 8.28076 12.5201 8.18699C12.6139 8.09322 12.6666 7.96605 12.6666 7.83344V7.50011C12.6666 7.3675 12.6139 7.24032 12.5201 7.14656C12.4264 7.05279 12.2992 7.00011 12.1666 7.00011ZM20.8332 11.0001H14.4999C14.3673 11.0001 14.2401 11.0528 14.1463 11.1465C14.0526 11.2403 13.9999 11.3675 13.9999 11.5001V11.8334C13.9999 11.966 14.0526 12.0932 14.1463 12.187C14.2401 12.2807 14.3673 12.3334 14.4999 12.3334H20.8332C20.9658 12.3334 21.093 12.2807 21.1867 12.187C21.2805 12.0932 21.3332 11.966 21.3332 11.8334V11.5001C21.3332 11.3675 21.2805 11.2403 21.1867 11.1465C21.093 11.0528 20.9658 11.0001 20.8332 11.0001ZM20.8332 7.00011H14.4999C14.3673 7.00011 14.2401 7.05279 14.1463 7.14656C14.0526 7.24032 13.9999 7.3675 13.9999 7.50011V7.83344C13.9999 7.96605 14.0526 8.09322 14.1463 8.18699C14.2401 8.28076 14.3673 8.33344 14.4999 8.33344H20.8332C20.9658 8.33344 21.093 8.28076 21.1867 8.18699C21.2805 8.09322 21.3332 7.96605 21.3332 7.83344V7.50011C21.3332 7.3675 21.2805 7.24032 21.1867 7.14656C21.093 7.05279 20.9658 7.00011 20.8332 7.00011ZM0 1.66682V13.6388C0 14.3655 0.569579 14.9796 1.29582 15.0001C1.47405 15.0051 1.65147 14.9743 1.81759 14.9095C1.98371 14.8448 2.13515 14.7474 2.26296 14.623C2.39077 14.4987 2.49235 14.35 2.56169 14.1858C2.63103 14.0215 2.66672 13.845 2.66665 13.6667V0.333496H1.33332C0.979704 0.333496 0.640568 0.473971 0.390521 0.724017C0.140475 0.974064 0 1.3132 0 1.66682H0Z" class="color232C47 svgShape" id="svg_2"/></svg></g></g></svg>