<svg id="SvgjsSvg1022" stroke-width="100" width="288" height="288" xmlns="http://www.w3.org/2000/svg" version="1.1" xmlns:xlink="http://www.w3.org/1999/xlink" xmlns:svgjs="http://svgjs.com/svgjs"><defs id="SvgjsDefs1023"></defs><g id="SvgjsG1024"><svg xmlns="http://www.w3.org/2000/svg" width="288" height="288" fill="none" viewBox="0 0 14 14"><path fill="#ffffff" d="M13.7083 6.125H7.875V0.291667C7.875 0.130521 7.74448 0 7.58333 0H6.41667C6.25552 0 6.125 0.130521 6.125 0.291667V6.125H0.291667C0.130521 6.125 0 6.25552 0 6.41667V7.58333C0 7.74448 0.130521 7.875 0.291667 7.875H6.125V13.7083C6.125 13.8695 6.25552 14 6.41667 14H7.58333C7.74448 14 7.875 13.8695 7.875 13.7083V7.875H13.7083C13.8695 7.875 14 7.74448 14 7.58333V6.41667C14 6.25552 13.8695 6.125 13.7083 6.125Z" class="color4B5268 svgShape"></path></svg></g></svg>